<svg width="37" height="50" viewBox="0 0 37 50" fill="none" xmlns="http://www.w3.org/2000/svg">
<path d="M20.9967 31.6929C17.9202 31.2108 16.5684 28.9955 13.8648 24.5722C17.3199 21.1116 19.048 19.3799 22.1257 19.8605C25.2067 20.3441 28.0945 22.7968 29.2576 26.9812C27.3441 30.6851 24.0766 32.1707 20.9967 31.6929ZM14.2218 44.5303C11.3238 44.258 9.97769 42.2684 7.28887 38.285C10.3983 34.8418 11.9525 33.1188 14.8517 33.3854C17.7519 33.6548 20.5465 35.7798 21.7846 39.6293C20.1258 43.2093 17.1232 44.7969 14.2218 44.5303ZM7.15017 21.6534C8.67137 24.029 8.50424 26.1933 8.17112 30.5205C4.79447 30.0923 3.10501 29.8796 1.58267 27.5041C0.0603364 25.1242 -0.533136 21.7729 0.561718 18.6371C3.17777 17.8739 5.62783 19.2765 7.15017 21.6534ZM31.1574 13.7186C28.389 15.2042 26.4278 14.1759 22.502 12.1208C24.1062 7.09159 24.91 4.57625 27.6738 3.08627C30.4411 1.59921 33.7882 1.88322 36.3281 4.68257C36.1075 8.97044 33.9212 12.2286 31.1574 13.7186ZM16.6605 8.54369C17.6542 12.7223 16.5195 15.4503 14.2514 20.9063C9.99361 17.9991 7.86302 16.5456 6.86821 12.3655C5.87227 8.18249 6.51008 3.36446 9.27621 0C13.0371 0.817084 15.6646 4.35924 16.6605 8.54369Z" fill="#74B49B"/>
<path d="M6.86883 12.3655C7.84885 16.4844 9.94078 17.9627 14.0746 20.7854V20.7781C13.995 17.1063 10.9674 4.93746 9.22338 0.0757446C6.50729 3.43729 5.87971 8.21308 6.86883 12.3655ZM0.511193 18.8162C-0.500662 21.9011 0.0893974 25.1694 1.58331 27.5041C3.10677 29.8811 4.79623 30.0923 8.17174 30.5205C7.03823 27.6993 2.58834 21.2165 0.511193 18.8162Z" fill="#A7D7C5"/>
<path d="M22.1257 19.8605C19.2117 19.4061 17.4904 20.9529 14.3855 24.0537C16.3706 24.2067 24.3745 25.1388 29.2337 27.0206C29.2405 27.006 29.2507 26.9958 29.2575 26.9812C28.0945 22.7968 25.2067 20.3441 22.1257 19.8605ZM21.78 39.6176C20.5397 35.7769 17.7497 33.6548 14.8516 33.3854C12.0094 33.1247 10.4518 34.785 7.46395 38.0927C10.6098 37.6485 16.4513 36.8256 21.78 39.6176Z" fill="#5C8D89"/>
<path d="M22.7066 12.2271C26.4892 14.2065 28.4401 15.175 31.1562 13.7186C33.9065 12.2359 36.0814 9.00104 36.3201 4.74667C31.8611 5.85505 24.5064 10.7911 22.7066 12.2271Z" fill="#A7D7C5"/>
<path d="M2.6173 49.9848C1.95334 49.8523 1.06768 48.7745 1.17 47.9225C1.79076 42.7345 4.41932 30.2001 21.9734 11.8674C22.4941 11.3212 23.083 10.9076 23.5241 11.5586C23.9686 12.2096 23.465 12.9423 22.9579 13.5088C7.85054 30.3603 5.31976 43.7074 4.74107 48.5589C4.63761 49.411 3.2824 50.113 2.6173 49.9848Z" fill="#B96464"/>
</svg>
