<svg width="200" height="50" viewBox="0 0 200 50" fill="none" xmlns="http://www.w3.org/2000/svg">
<rect x="2" y="2" width="196" height="46" rx="3" fill="#FBF2D1" stroke="#5C8D89" stroke-width="4"/>
<path d="M42.2051 19.072C42.8771 19.024 43.2131 19.296 43.2131 19.888C43.2131 20.144 43.1411 20.352 42.9971 20.512C42.8531 20.656 42.6051 20.744 42.2531 20.776L41.5331 20.848C40.4611 20.944 39.6611 21.328 39.1331 22C38.6211 22.656 38.3651 23.432 38.3651 24.328V30.16C38.3651 30.48 38.2771 30.72 38.1011 30.88C37.9251 31.04 37.6931 31.12 37.4051 31.12C37.1171 31.12 36.8771 31.04 36.6851 30.88C36.5091 30.704 36.4211 30.464 36.4211 30.16V20.032C36.4211 19.728 36.5171 19.496 36.7091 19.336C36.9011 19.16 37.1331 19.072 37.4051 19.072C37.6611 19.072 37.8771 19.16 38.0531 19.336C38.2291 19.496 38.3171 19.72 38.3171 20.008V21.352C38.6531 20.648 39.1251 20.112 39.7331 19.744C40.3571 19.376 41.0691 19.16 41.8691 19.096L42.2051 19.072ZM53.6957 28.288C53.8717 28.288 54.0237 28.36 54.1517 28.504C54.2797 28.648 54.3437 28.832 54.3437 29.056C54.3437 29.456 54.0637 29.824 53.5037 30.16C52.9277 30.496 52.3197 30.752 51.6797 30.928C51.0397 31.088 50.4157 31.168 49.8077 31.168C47.9997 31.168 46.5677 30.632 45.5117 29.56C44.4717 28.488 43.9517 27.008 43.9517 25.12C43.9517 23.92 44.1837 22.864 44.6477 21.952C45.1117 21.024 45.7597 20.304 46.5917 19.792C47.4397 19.28 48.3997 19.024 49.4717 19.024C50.9917 19.024 52.1997 19.52 53.0957 20.512C53.9917 21.504 54.4397 22.848 54.4397 24.544C54.4397 24.864 54.3757 25.096 54.2477 25.24C54.1197 25.384 53.9117 25.456 53.6237 25.456H45.8957C46.0397 28.208 47.3437 29.584 49.8077 29.584C50.4317 29.584 50.9677 29.504 51.4157 29.344C51.8637 29.168 52.3437 28.936 52.8557 28.648C53.2717 28.408 53.5517 28.288 53.6957 28.288ZM49.4957 20.536C48.4717 20.536 47.6477 20.856 47.0237 21.496C46.4157 22.136 46.0557 23.04 45.9437 24.208H52.7357C52.7037 23.024 52.4077 22.12 51.8477 21.496C51.2877 20.856 50.5037 20.536 49.4957 20.536ZM62.6336 29.584C63.1936 29.632 63.4736 29.888 63.4736 30.352C63.4736 30.624 63.3696 30.832 63.1616 30.976C62.9696 31.104 62.6736 31.152 62.2736 31.12L61.6256 31.072C60.3456 30.976 59.4016 30.592 58.7936 29.92C58.1856 29.248 57.8816 28.232 57.8816 26.872V20.848H56.2736C56.0016 20.848 55.7856 20.784 55.6256 20.656C55.4816 20.512 55.4096 20.328 55.4096 20.104C55.4096 19.864 55.4816 19.672 55.6256 19.528C55.7856 19.384 56.0016 19.312 56.2736 19.312H57.8816V16.6C57.8816 16.296 57.9696 16.064 58.1456 15.904C58.3216 15.728 58.5616 15.64 58.8656 15.64C59.1536 15.64 59.3856 15.728 59.5616 15.904C59.7376 16.064 59.8256 16.296 59.8256 16.6V19.312H62.4896C62.7456 19.312 62.9456 19.384 63.0896 19.528C63.2496 19.672 63.3296 19.864 63.3296 20.104C63.3296 20.328 63.2496 20.512 63.0896 20.656C62.9456 20.784 62.7456 20.848 62.4896 20.848H59.8256V26.968C59.8256 27.848 60.0016 28.488 60.3536 28.888C60.7216 29.272 61.2656 29.488 61.9856 29.536L62.6336 29.584ZM74.2698 19.072C74.5738 19.072 74.8058 19.16 74.9658 19.336C75.1418 19.512 75.2298 19.744 75.2298 20.032V30.184C75.2298 30.456 75.1418 30.68 74.9658 30.856C74.8058 31.032 74.5738 31.12 74.2698 31.12C73.9818 31.12 73.7498 31.04 73.5738 30.88C73.4138 30.704 73.3338 30.48 73.3338 30.208V29.008C72.9658 29.712 72.4458 30.248 71.7738 30.616C71.1178 30.984 70.3738 31.168 69.5418 31.168C68.1498 31.168 67.1018 30.784 66.3978 30.016C65.6938 29.232 65.3418 28.08 65.3418 26.56V20.032C65.3418 19.744 65.4298 19.512 65.6058 19.336C65.7818 19.16 66.0218 19.072 66.3258 19.072C66.6298 19.072 66.8618 19.16 67.0218 19.336C67.1978 19.512 67.2858 19.744 67.2858 20.032V26.512C67.2858 27.552 67.4938 28.32 67.9098 28.816C68.3258 29.296 68.9818 29.536 69.8778 29.536C70.9018 29.536 71.7258 29.208 72.3498 28.552C72.9738 27.88 73.2858 27 73.2858 25.912V20.032C73.2858 19.744 73.3738 19.512 73.5498 19.336C73.7258 19.16 73.9658 19.072 74.2698 19.072ZM84.627 19.072C85.299 19.024 85.635 19.296 85.635 19.888C85.635 20.144 85.563 20.352 85.419 20.512C85.275 20.656 85.027 20.744 84.675 20.776L83.955 20.848C82.883 20.944 82.083 21.328 81.555 22C81.043 22.656 80.787 23.432 80.787 24.328V30.16C80.787 30.48 80.699 30.72 80.523 30.88C80.347 31.04 80.115 31.12 79.827 31.12C79.539 31.12 79.299 31.04 79.107 30.88C78.931 30.704 78.843 30.464 78.843 30.16V20.032C78.843 19.728 78.939 19.496 79.131 19.336C79.323 19.16 79.555 19.072 79.827 19.072C80.083 19.072 80.299 19.16 80.475 19.336C80.651 19.496 80.739 19.72 80.739 20.008V21.352C81.075 20.648 81.547 20.112 82.155 19.744C82.779 19.376 83.491 19.16 84.291 19.096L84.627 19.072ZM93.1839 19.024C95.9839 19.024 97.3839 20.568 97.3839 23.656V30.16C97.3839 30.464 97.2959 30.704 97.1199 30.88C96.9599 31.04 96.7279 31.12 96.4239 31.12C96.1199 31.12 95.8799 31.04 95.7039 30.88C95.5279 30.704 95.4399 30.464 95.4399 30.16V23.776C95.4399 22.688 95.2239 21.896 94.7919 21.4C94.3759 20.904 93.7039 20.656 92.7759 20.656C91.7039 20.656 90.8479 20.984 90.2079 21.64C89.5679 22.296 89.2479 23.184 89.2479 24.304V30.16C89.2479 30.464 89.1599 30.704 88.9839 30.88C88.8239 31.04 88.5919 31.12 88.2879 31.12C87.9839 31.12 87.7439 31.04 87.5679 30.88C87.3919 30.704 87.3039 30.464 87.3039 30.16V20.032C87.3039 19.744 87.3919 19.512 87.5679 19.336C87.7439 19.16 87.9839 19.072 88.2879 19.072C88.5759 19.072 88.7999 19.16 88.9599 19.336C89.1359 19.512 89.2239 19.736 89.2239 20.008V21.232C89.6079 20.512 90.1439 19.968 90.8319 19.6C91.5199 19.216 92.3039 19.024 93.1839 19.024ZM113.036 19.024C114.412 19.024 115.452 19.416 116.156 20.2C116.86 20.968 117.212 22.12 117.212 23.656V30.16C117.212 30.464 117.124 30.704 116.948 30.88C116.772 31.04 116.54 31.12 116.252 31.12C115.948 31.12 115.708 31.04 115.532 30.88C115.356 30.704 115.268 30.464 115.268 30.16V23.704C115.268 22.664 115.052 21.896 114.62 21.4C114.204 20.904 113.532 20.656 112.604 20.656C111.532 20.656 110.676 20.984 110.036 21.64C109.396 22.296 109.076 23.184 109.076 24.304V30.16C109.076 30.464 108.988 30.704 108.812 30.88C108.652 31.04 108.42 31.12 108.116 31.12C107.812 31.12 107.572 31.04 107.396 30.88C107.22 30.704 107.132 30.464 107.132 30.16V14.896C107.132 14.624 107.22 14.4 107.396 14.224C107.588 14.048 107.828 13.96 108.116 13.96C108.42 13.96 108.652 14.048 108.812 14.224C108.988 14.384 109.076 14.608 109.076 14.896V21.184C109.46 20.48 109.996 19.944 110.684 19.576C111.372 19.208 112.156 19.024 113.036 19.024ZM125.621 31.168C124.517 31.168 123.541 30.92 122.693 30.424C121.861 29.928 121.213 29.224 120.749 28.312C120.301 27.384 120.077 26.312 120.077 25.096C120.077 23.88 120.301 22.816 120.749 21.904C121.213 20.976 121.861 20.264 122.693 19.768C123.541 19.272 124.517 19.024 125.621 19.024C126.725 19.024 127.701 19.272 128.549 19.768C129.397 20.264 130.045 20.976 130.493 21.904C130.957 22.816 131.189 23.88 131.189 25.096C131.189 26.312 130.957 27.384 130.493 28.312C130.045 29.224 129.397 29.928 128.549 30.424C127.701 30.92 126.725 31.168 125.621 31.168ZM125.621 29.56C126.773 29.56 127.653 29.184 128.261 28.432C128.885 27.664 129.197 26.552 129.197 25.096C129.197 23.672 128.885 22.576 128.261 21.808C127.637 21.024 126.757 20.632 125.621 20.632C124.485 20.632 123.605 21.024 122.981 21.808C122.357 22.576 122.045 23.672 122.045 25.096C122.045 26.536 122.349 27.64 122.957 28.408C123.581 29.176 124.469 29.56 125.621 29.56ZM147.093 19.024C149.685 19.024 150.981 20.568 150.981 23.656V30.16C150.981 30.464 150.893 30.704 150.717 30.88C150.541 31.04 150.309 31.12 150.021 31.12C149.733 31.12 149.493 31.04 149.301 30.88C149.125 30.704 149.037 30.464 149.037 30.16V23.704C149.037 22.632 148.845 21.856 148.461 21.376C148.077 20.896 147.477 20.656 146.661 20.656C145.685 20.656 144.917 20.984 144.357 21.64C143.797 22.296 143.517 23.184 143.517 24.304V30.16C143.517 30.464 143.421 30.704 143.229 30.88C143.053 31.04 142.821 31.12 142.533 31.12C142.245 31.12 142.013 31.04 141.837 30.88C141.661 30.704 141.573 30.464 141.573 30.16V23.704C141.573 22.632 141.381 21.856 140.997 21.376C140.613 20.896 140.005 20.656 139.173 20.656C138.213 20.656 137.445 20.984 136.869 21.64C136.309 22.296 136.029 23.184 136.029 24.304V30.16C136.029 30.464 135.941 30.704 135.765 30.88C135.589 31.04 135.357 31.12 135.069 31.12C134.781 31.12 134.541 31.04 134.349 30.88C134.173 30.704 134.085 30.464 134.085 30.16V20.032C134.085 19.744 134.173 19.512 134.349 19.336C134.541 19.16 134.781 19.072 135.069 19.072C135.341 19.072 135.565 19.16 135.741 19.336C135.917 19.496 136.005 19.72 136.005 20.008V21.16C136.357 20.472 136.845 19.944 137.469 19.576C138.093 19.208 138.813 19.024 139.629 19.024C141.453 19.024 142.645 19.792 143.205 21.328C143.541 20.624 144.053 20.064 144.741 19.648C145.429 19.232 146.213 19.024 147.093 19.024ZM163.571 28.288C163.747 28.288 163.899 28.36 164.027 28.504C164.155 28.648 164.219 28.832 164.219 29.056C164.219 29.456 163.939 29.824 163.379 30.16C162.803 30.496 162.195 30.752 161.555 30.928C160.915 31.088 160.291 31.168 159.683 31.168C157.875 31.168 156.443 30.632 155.387 29.56C154.347 28.488 153.827 27.008 153.827 25.12C153.827 23.92 154.059 22.864 154.523 21.952C154.987 21.024 155.635 20.304 156.467 19.792C157.315 19.28 158.275 19.024 159.347 19.024C160.867 19.024 162.075 19.52 162.971 20.512C163.867 21.504 164.315 22.848 164.315 24.544C164.315 24.864 164.251 25.096 164.123 25.24C163.995 25.384 163.787 25.456 163.499 25.456H155.771C155.915 28.208 157.219 29.584 159.683 29.584C160.307 29.584 160.843 29.504 161.291 29.344C161.739 29.168 162.219 28.936 162.731 28.648C163.147 28.408 163.427 28.288 163.571 28.288ZM159.371 20.536C158.347 20.536 157.523 20.856 156.899 21.496C156.291 22.136 155.931 23.04 155.819 24.208H162.611C162.579 23.024 162.283 22.12 161.723 21.496C161.163 20.856 160.379 20.536 159.371 20.536Z" fill="#5C8D89"/>
</svg>
