<svg width="47" height="45" viewBox="0 0 47 45" fill="none" xmlns="http://www.w3.org/2000/svg">
<path d="M45.4732 20.3086L33.3382 15.8168L28.8068 0.965454C28.6322 0.392727 28.1018 0 27.5032 0C26.9045 0 26.3741 0.392727 26.1995 0.965454L21.6695 15.8168L9.53316 20.3086C8.99725 20.5077 8.6427 21.0164 8.6427 21.5877C8.6427 22.1577 8.99725 22.6691 9.53316 22.8668L21.6627 27.3573L26.1954 42.6614C26.3672 43.2395 26.8991 43.6364 27.5032 43.6364C28.1059 43.6364 28.6391 43.2395 28.8109 42.66L33.3436 27.3559L45.4745 22.8655C46.0077 22.6691 46.3636 22.1591 46.3636 21.5877C46.3636 21.0177 46.0077 20.5077 45.4732 20.3086Z" fill="#DCF2EC"/>
<path d="M18.2005 35.31L15.045 34.1428L13.8177 29.6428C13.6568 29.0482 13.1182 28.6364 12.5032 28.6364C11.8882 28.6364 11.3495 29.0482 11.1873 29.6414L9.96 34.1414L6.80591 35.3087C6.27 35.5064 5.91545 36.0178 5.91545 36.5878C5.91545 37.1578 6.27 37.6691 6.80591 37.8668L9.94364 39.03L11.1805 43.9691C11.3332 44.5746 11.8773 45 12.5032 45C13.1291 45 13.6732 44.5746 13.8259 43.9678L15.0627 39.0287L18.2005 37.8655C18.7364 37.6691 19.0909 37.1578 19.0909 36.5878C19.0909 36.0178 18.7364 35.5064 18.2005 35.31ZM12.285 5.76957L9.06136 4.57639L7.86682 1.35139C7.66909 0.815483 7.15909 0.460938 6.58773 0.460938C6.01773 0.460938 5.50773 0.815483 5.30864 1.35139L4.11545 4.57639L0.890455 5.76957C0.354545 5.96866 0 6.47867 0 7.04867C0 7.61867 0.354545 8.13003 0.890455 8.32776L4.11545 9.52094L5.30864 12.7459C5.50773 13.2818 6.01773 13.6364 6.58773 13.6364C7.15773 13.6364 7.66773 13.2818 7.86682 12.7459L9.06 9.52094L12.285 8.32776C12.8209 8.12866 13.1755 7.61867 13.1755 7.04867C13.1755 6.47867 12.8209 5.96866 12.285 5.76957Z" fill="#A7D7C5"/>
</svg>
