<svg width="49" height="50" viewBox="0 0 49 50" fill="none" xmlns="http://www.w3.org/2000/svg">
<path d="M48.7236 50V40.2531C48.7236 35.6373 43.5925 32.5949 38.9767 32.5949H22.2678C17.6548 32.5949 12.5209 35.6373 12.5209 40.2531V50H48.7236Z" fill="#A7D7C5"/>
<path d="M30.5443 2.05798C36.2615 2.05798 45.7884 4.9166 45.7884 17.3021C45.7884 29.6875 45.7884 32.5462 42.9298 32.5462C40.0698 32.5462 36.2601 29.6875 30.5429 29.6875C24.8271 29.6875 21.0968 32.5462 18.1574 32.5462C14.973 32.5462 15.2988 21.1131 15.2988 17.3021C15.3016 4.9166 24.8284 2.05798 30.5443 2.05798Z" fill="#292F33"/>
<path d="M25.5093 32.6227C25.5093 34.6835 28.5336 35.3797 30.6223 35.3797C32.7109 35.3797 35.7185 34.6835 35.7185 32.6227V28.1601H25.5093V32.6227Z" fill="#F7DECE"/>
<path d="M25.4996 30.0593C26.924 31.6676 28.6896 32.1034 30.6083 32.1034C32.5285 32.1034 34.294 31.669 35.7185 30.0593V25.9712H25.4996V30.0593Z" fill="#EEC2AD"/>
<path d="M19.1126 16.8843C19.1126 8.76103 24.2311 2.17633 30.5443 2.17633C36.8575 2.17633 41.9774 8.76103 41.9774 16.8843C41.9774 25.0063 36.8575 31.2067 30.5443 31.2067C24.2311 31.2067 19.1126 25.0077 19.1126 16.8843Z" fill="#F7DECE"/>
<path d="M30.5443 27.7813C28.3095 27.7813 27.1385 26.6757 27.0131 26.549C26.64 26.1773 26.64 25.5744 27.0131 25.2026C27.3835 24.8336 27.9767 24.8308 28.3498 25.1928C28.3986 25.2374 29.1198 25.8765 30.5443 25.8765C31.991 25.8765 32.7123 25.2179 32.7401 25.1914C33.1202 24.835 33.719 24.8461 34.081 25.2193C34.443 25.5938 34.443 26.1814 34.0754 26.549C33.9515 26.6757 32.7819 27.7813 30.5443 27.7813Z" fill="#DF1F32"/>
<path d="M16.3153 21.4556C16.286 20.0632 16.254 21.1437 16.254 20.8082C16.254 16.0433 19.1126 21.496 19.1126 18.1027C19.1126 14.7066 21.0174 14.3669 22.9222 12.4621C23.876 11.5083 25.7809 9.64104 25.7809 9.64104C25.7809 9.64104 30.5443 12.5191 34.3553 12.5191C38.1649 12.5191 41.9773 14.4337 41.9773 18.2447C41.9773 22.0558 44.836 16.0392 44.836 20.8026C44.836 21.1423 44.8053 20.0632 44.7803 21.4556H45.78C45.7898 18.6708 45.7898 18.7766 45.7898 16.9971C45.7898 4.61166 36.2615 0 30.5457 0C24.8298 0 15.303 4.53507 15.303 16.9205C15.303 18.0247 15.2751 18.6708 15.3141 21.4556H16.3153Z" fill="#292F33"/>
<path d="M25.8992 19.9045C25.2517 19.9045 24.7212 19.374 24.7212 18.7265V17.5499C24.7212 16.9025 25.2517 16.3719 25.8992 16.3719C26.5467 16.3719 27.0786 16.9025 27.0786 17.5499V18.7265C27.0786 19.374 26.5467 19.9045 25.8992 19.9045ZM35.3188 19.9045C34.6714 19.9045 34.1409 19.374 34.1409 18.7265V17.5499C34.1409 16.9025 34.6714 16.3719 35.3188 16.3719C35.9663 16.3719 36.4968 16.9025 36.4968 17.5499V18.7265C36.4968 19.374 35.9663 19.9045 35.3188 19.9045Z" fill="#662113"/>
<path d="M31.7877 23.5442H29.4331C29.1087 23.5442 28.8442 23.2797 28.8442 22.9552V22.7422C28.8442 22.4178 29.1073 22.1518 29.4331 22.1518H31.7877C32.1107 22.1518 32.3767 22.4164 32.3767 22.7422V22.9552C32.3767 23.2797 32.1107 23.5442 31.7877 23.5442Z" fill="#C1694F"/>
<path d="M21.4936 18.5817C21.4936 20.5979 20.4716 22.2326 19.2115 22.2326C17.9513 22.2326 16.9293 20.5979 16.9293 18.5817C16.9293 16.5655 17.9513 14.9294 19.2115 14.9294C20.4716 14.928 21.4936 16.5641 21.4936 18.5817ZM44.3138 18.5817C44.3138 20.5979 43.2932 22.2326 42.0317 22.2326C40.7715 22.2326 39.7495 20.5979 39.7495 18.5817C39.7495 16.5655 40.7701 14.9294 42.0317 14.9294C43.2932 14.928 44.3138 16.5641 44.3138 18.5817Z" fill="#F7DECE"/>
<path d="M45.9388 48.6076C45.9388 49.3776 45.3163 50 44.5463 50H30.6223C29.8523 50 29.2298 49.3776 29.2298 48.6076C29.2298 47.8376 29.8523 47.2152 30.6223 47.2152H44.5463C45.3163 47.2152 45.9388 47.8376 45.9388 48.6076Z" fill="#E1E8ED"/>
<path d="M28.1716 30.5063H5.22333C3.1013 30.5063 0.380535 31.5798 1.77294 35.4229L6.05042 47.2235C6.05182 47.2235 6.60321 50 9.73613 50H37.5843L32.0147 34.3493C31.4048 32.5086 30.295 30.5063 28.1716 30.5063Z" fill="#E1E8ED"/>
<path d="M26.7792 30.5063H3.83092C1.70889 30.5063 -1.01187 31.5798 0.380535 35.4229L4.65801 47.2235C4.65941 47.2235 5.2108 50 8.34372 50H36.1919L30.6223 34.3493C30.0124 32.5086 28.9026 30.5063 26.7792 30.5063Z" fill="#99AAB5"/>
<path d="M19.5094 40.6472C20.2391 42.8361 19.6487 45.0054 18.188 45.4914C16.7302 45.9787 14.9549 44.5989 14.2253 42.41C13.4956 40.2211 14.0874 38.0517 15.5466 37.5658C17.0059 37.0798 18.7812 38.4583 19.5094 40.6472ZM26.445 34.3354H4.16649C3.59004 34.3354 3.12219 33.8676 3.12219 33.2911C3.12219 32.7146 3.59004 32.2468 4.16649 32.2468H26.445C27.0215 32.2468 27.4893 32.7146 27.4893 33.2911C27.4893 33.8676 27.0215 34.3354 26.445 34.3354Z" fill="#E1E8ED"/>
</svg>
